<?xml version="1.0" encoding="UTF-8"?>
<svg id="Layer_2" data-name="Layer 2" xmlns="http://www.w3.org/2000/svg" viewBox="0 0 64 64">
  <defs>
    <style>
      .cls-1 {
        stroke-miterlimit: 10;
      }

      .cls-1, .cls-2 {
        fill: #16db2e;
      }

      .cls-1, .cls-3 {
        stroke: #16db2e;
      }

      .cls-3 {
        fill: #fff;
        stroke-linecap: round;
        stroke-linejoin: round;
        stroke-width: 2px;
      }
    </style>
  </defs>
  <g id="Layer_1-2" data-name="Layer 1">
    <circle class="cls-1" cx="32" cy="32" r="31.5"/>
    <circle class="cls-3" cx="32" cy="32" r="19.02"/>
    <path class="cls-2" d="M24.49,36.25c0-2.27,1.13-3.97,3.26-4.96-1.7-.85-2.55-2.41-2.55-4.11,0-3.26,2.83-5.53,6.8-5.53s6.8,2.27,6.8,5.53c0,1.7-.85,3.26-2.55,4.11,2.13.99,3.26,2.69,3.26,4.96,0,3.54-3.12,6.09-7.51,6.09s-7.51-2.55-7.51-6.09ZM32,39.37c2.27,0,3.83-1.28,3.83-3.26,0-1.84-1.56-3.26-3.83-3.26s-3.83,1.42-3.83,3.26c0,1.98,1.56,3.26,3.83,3.26ZM32,30.02c1.84,0,3.26-.99,3.26-2.69s-1.28-2.69-3.26-2.69-3.26.99-3.26,2.69,1.42,2.69,3.26,2.69Z"/>
  </g>
</svg>