<?xml version="1.0" encoding="UTF-8"?>
<svg id="Layer_2" data-name="Layer 2" xmlns="http://www.w3.org/2000/svg" viewBox="0 0 68.67 63.73">
  <defs>
    <style>
      .cls-1 {
        fill: #16db2e;
        stroke-miterlimit: 10;
      }

      .cls-1, .cls-2 {
        stroke: #16db2e;
      }

      .cls-2 {
        fill: #fff;
        stroke-linecap: round;
        stroke-linejoin: round;
        stroke-width: 2px;
      }
    </style>
  </defs>
  <g id="Layer_1-2" data-name="Layer 1">
    <g>
      <path id="Path_1" data-name="Path 1" class="cls-1" d="M50.31.94c-9.87,0-14.23,5.81-15.97,10.75-1.74-4.94-6.1-10.75-15.97-10.75S.94,8.77.94,18.94c0,12.49,11.62,22.36,19.17,28.75,4.8,4.11,9.18,8.68,13.07,13.65l1.16,1.45,1.16-1.45c3.89-4.97,8.27-9.54,13.07-13.65,7.55-6.39,19.17-16.26,19.17-28.75,0-10.17-7.55-18.01-17.43-18.01"/>
      <path class="cls-1" d="M34.34,63.23c-.13,0-.26-.06-.34-.16l-1.16-1.45c-3.87-4.94-8.25-9.51-13.01-13.59C12.13,41.52.5,31.68.5,18.94c0-5.04,1.82-9.69,5.13-13.12C8.95,2.39,13.47.5,18.36.5c9.98,0,14.22,5.83,15.97,9.98,1.75-4.14,6-9.98,15.97-9.98,4.89,0,9.41,1.89,12.73,5.32,3.31,3.42,5.13,8.08,5.13,13.12,0,12.74-11.63,22.58-19.32,29.09-4.76,4.08-9.14,8.65-13.01,13.59l-1.16,1.46c-.08.1-.21.16-.34.16ZM18.36,1.37C8.68,1.37,1.37,8.93,1.37,18.94c0,12.33,11.44,22.01,19.01,28.42,4.81,4.12,9.23,8.73,13.13,13.71l.82,1.02.82-1.02c3.9-4.98,8.32-9.59,13.13-13.71,7.57-6.41,19.02-16.09,19.02-28.42,0-10.02-7.3-17.57-16.99-17.57-10.33,0-14.18,6.55-15.56,10.45-.06.17-.23.29-.41.29h0c-.18,0-.35-.12-.41-.29-1.38-3.9-5.23-10.45-15.56-10.45Z"/>
    </g>
    <g>
      <path id="Path_1-2" data-name="Path 1" class="cls-2" d="M43.9,13.35c-5.91,0-8.52,3.48-9.56,6.43-1.04-2.96-3.65-6.43-9.56-6.43s-10.43,4.69-10.43,10.78c0,7.48,6.95,13.39,11.47,17.21,2.87,2.46,5.49,5.2,7.83,8.17l.69.87.69-.87c2.33-2.98,4.95-5.71,7.83-8.17,4.52-3.82,11.47-9.74,11.47-17.21,0-6.09-4.52-10.78-10.43-10.78"/>
      <path class="cls-2" d="M34.34,50.64c-.08,0-.15-.04-.2-.1l-.69-.87c-2.32-2.96-4.94-5.69-7.79-8.14-4.6-3.9-11.57-9.79-11.57-17.41,0-3.01,1.09-5.8,3.07-7.85,1.99-2.05,4.69-3.19,7.62-3.19,5.97,0,8.51,3.49,9.56,5.97,1.05-2.48,3.59-5.97,9.56-5.97,2.93,0,5.63,1.13,7.62,3.19,1.98,2.05,3.07,4.84,3.07,7.85,0,7.62-6.96,13.51-11.57,17.41-2.85,2.44-5.47,5.18-7.79,8.13l-.69.87c-.05.06-.12.1-.2.1ZM24.77,13.61c-5.8,0-10.17,4.52-10.17,10.52,0,7.38,6.85,13.18,11.38,17.01,2.88,2.46,5.53,5.23,7.86,8.21l.49.61.49-.61c2.34-2.98,4.98-5.74,7.86-8.21,4.53-3.84,11.38-9.63,11.38-17.01,0-6-4.37-10.52-10.17-10.52-6.18,0-8.49,3.92-9.32,6.26-.04.1-.14.17-.25.17h0c-.11,0-.21-.07-.25-.17-.82-2.34-3.13-6.26-9.32-6.26Z"/>
    </g>
  </g>
</svg>