<?xml version="1.0" encoding="UTF-8"?>
<svg id="Layer_2" data-name="Layer 2" xmlns="http://www.w3.org/2000/svg" viewBox="0 0 68.67 63.73">
  <defs>
    <style>
      .cls-1 {
        fill: #16db2e;
        stroke: #16db2e;
        stroke-miterlimit: 10;
      }
    </style>
  </defs>
  <g id="Layer_1-2" data-name="Layer 1">
    <g>
      <path id="Path_1" data-name="Path 1" class="cls-1" d="M50.31.94c-9.87,0-14.23,5.81-15.97,10.75-1.74-4.94-6.1-10.75-15.97-10.75S.94,8.77.94,18.94c0,12.49,11.62,22.36,19.17,28.75,4.8,4.11,9.18,8.68,13.07,13.65l1.16,1.45,1.16-1.45c3.89-4.97,8.27-9.54,13.07-13.65,7.55-6.39,19.17-16.26,19.17-28.75,0-10.17-7.55-18.01-17.43-18.01"/>
      <path class="cls-1" d="M34.34,63.23c-.13,0-.26-.06-.34-.16l-1.16-1.45c-3.87-4.94-8.25-9.51-13.01-13.59C12.13,41.52.5,31.68.5,18.94c0-5.04,1.82-9.69,5.13-13.12C8.95,2.39,13.47.5,18.36.5c9.98,0,14.22,5.83,15.97,9.98,1.75-4.14,6-9.98,15.97-9.98,4.89,0,9.41,1.89,12.73,5.32,3.31,3.42,5.13,8.08,5.13,13.12,0,12.74-11.63,22.58-19.32,29.09-4.76,4.08-9.14,8.65-13.01,13.59l-1.16,1.46c-.08.1-.21.16-.34.16ZM18.36,1.37C8.68,1.37,1.37,8.93,1.37,18.94c0,12.33,11.44,22.01,19.01,28.42,4.81,4.12,9.23,8.73,13.13,13.71l.82,1.02.82-1.02c3.9-4.98,8.32-9.59,13.13-13.71,7.57-6.41,19.02-16.09,19.02-28.42,0-10.02-7.3-17.57-16.99-17.57-10.33,0-14.18,6.55-15.56,10.45-.06.17-.23.29-.41.29h0c-.18,0-.35-.12-.41-.29-1.38-3.9-5.23-10.45-15.56-10.45Z"/>
    </g>
  </g>
</svg>