<?xml version="1.0" encoding="UTF-8"?>
<svg id="Layer_2" data-name="Layer 2" xmlns="http://www.w3.org/2000/svg" viewBox="0 0 27.17 83">
  <defs>
    <style>
      .cls-1 {
        fill: #16db2e;
        stroke-miterlimit: 10;
      }

      .cls-1, .cls-2 {
        stroke: #16db2e;
      }

      .cls-2 {
        fill: #fff;
        stroke-linecap: round;
        stroke-linejoin: round;
        stroke-width: 2px;
      }
    </style>
  </defs>
  <g id="Layer_1-2" data-name="Layer 1">
    <g>
      <g id="UuihDK.tif">
        <path class="cls-2" d="M21.96,39.69c-1.59-3.17-2.99-6.41-3.46-9.99-.56-4.27.3-8.43.86-12.63.42-3.14.88-6.29,1.05-9.45.14-2.71-1.72-5.35-4.07-6.14-2.67-.91-5.17-.58-7.21,1.53-1.87,1.93-2.1,4.41-1.87,6.86.44,4.54,1.14,9.05,1.68,13.57.35,2.89.52,5.84-.49,8.59-1.51,4.12-3.37,8.12-5.02,12.19-1.87,4.64-2.79,9.48-2.3,14.47.74,7.59,3.56,14.6,6.36,21.6.23.58,1.06,1.15,1.71,1.28,1.43.29,2.91.31,4.25.42,1.48-.09,2.82-.14,4.16-.27.88-.08,1.68-.38,2.02-1.33,1.78-5.11,3.8-10.15,5.29-15.35,2.53-8.8,1.13-17.26-2.95-25.36Z"/>
      </g>
      <g>
        <path class="cls-1" d="M19,32.28c-.21-.8-.37-1.61-.49-2.45h-9.5c-.12.74-.3,1.48-.57,2.2-.03.08-.06.17-.09.25h10.65Z"/>
        <path class="cls-2" d="M21.96,39.69c-.66-1.31-1.28-2.63-1.82-3.98H7.01c-1.17,2.85-2.43,5.66-3.58,8.52-1.87,4.64-2.79,9.48-2.3,14.47.74,7.59,3.56,14.6,6.36,21.6.23.58,1.06,1.15,1.71,1.28,1.43.29,2.91.31,4.25.42,1.48-.09,2.82-.14,4.16-.27.88-.08,1.68-.38,2.02-1.33,1.78-5.11,3.8-10.15,5.29-15.35,2.53-8.8,1.13-17.26-2.95-25.36Z"/>
        <path class="cls-2" d="M8.94,23.44c.12.98.21,1.98.25,2.97h9.12c.04-3.13.63-6.23,1.04-9.34.42-3.14.88-6.29,1.05-9.45.14-2.71-1.72-5.35-4.07-6.14-2.67-.91-5.17-.58-7.21,1.53-1.87,1.93-2.1,4.41-1.87,6.86.44,4.54,1.14,9.05,1.68,13.57Z"/>
      </g>
    </g>
  </g>
</svg>