<?xml version="1.0" encoding="UTF-8"?>
<svg id="Layer_2" data-name="Layer 2" xmlns="http://www.w3.org/2000/svg" viewBox="0 0 60.73 191">
  <defs>
    <style>
      .cls-1 {
        fill: #fff;
        stroke: #16db2e;
        stroke-linecap: round;
        stroke-linejoin: round;
        stroke-width: 2px;
      }
    </style>
  </defs>
  <g id="Layer_1-2" data-name="Layer 1">
    <g>
      <g id="UuihDK.tif">
        <path class="cls-1" d="M49.91,91.27c-3.72-7.4-6.99-14.96-8.08-23.31-1.31-9.97.71-19.68,2.01-29.46.97-7.33,2.06-14.67,2.44-22.05.33-6.33-4.01-12.47-9.49-14.34C30.55,0,24.73.76,19.96,5.67c-4.36,4.49-4.91,10.29-4.36,16.01,1.03,10.58,2.65,21.11,3.93,31.67.81,6.74,1.2,13.63-1.15,20.04-3.53,9.62-7.87,18.94-11.7,28.45C2.32,112.68.17,123.96,1.3,135.62c1.72,17.72,8.31,34.08,14.85,50.41.54,1.35,2.48,2.68,3.98,2.99,3.33.69,6.79.71,9.91.99,3.44-.22,6.58-.34,9.7-.63,2.06-.19,3.93-.88,4.7-3.11,4.16-11.93,8.87-23.69,12.34-35.81,5.89-20.53,2.63-40.27-6.87-59.18Z"/>
      </g>
      <g>
        <path class="cls-1" d="M43,73.98c-.48-1.87-.86-3.77-1.13-5.71h-22.17c-.28,1.73-.71,3.45-1.32,5.13-.07.19-.15.39-.22.58h24.85Z"/>
        <path class="cls-1" d="M49.91,91.27c-1.53-3.06-2.99-6.14-4.25-9.29H15.02c-2.73,6.64-5.66,13.22-8.35,19.88C2.32,112.68.17,123.96,1.3,135.62c1.72,17.72,8.31,34.08,14.85,50.41.54,1.35,2.48,2.68,3.98,2.99,3.33.69,6.79.71,9.91.99,3.44-.22,6.58-.34,9.7-.63,2.06-.19,3.93-.88,4.7-3.11,4.16-11.93,8.87-23.69,12.34-35.81,5.89-20.53,2.63-40.27-6.87-59.18Z"/>
        <path class="cls-1" d="M19.53,53.36c.28,2.3.5,4.61.59,6.92h21.29c.1-7.31,1.46-14.53,2.43-21.79.97-7.33,2.06-14.67,2.44-22.05.33-6.33-4.01-12.47-9.49-14.34C30.55,0,24.73.76,19.96,5.67c-4.36,4.49-4.91,10.29-4.36,16.01,1.03,10.58,2.65,21.11,3.93,31.67Z"/>
      </g>
    </g>
  </g>
</svg>