<?xml version="1.0" encoding="UTF-8"?>
<svg id="Layer_2" data-name="Layer 2" xmlns="http://www.w3.org/2000/svg" viewBox="0 0 66.83 64">
  <defs>
    <style>
      .cls-1 {
        fill: #16db2e;
        stroke-miterlimit: 10;
      }

      .cls-1, .cls-2 {
        stroke: #16db2e;
      }

      .cls-2 {
        fill: #fff;
        stroke-linecap: round;
        stroke-linejoin: round;
        stroke-width: 2px;
      }
    </style>
  </defs>
  <g id="Layer_1-2" data-name="Layer 1">
    <path class="cls-1" d="M37.02,2.74l7.06,14.3c.59,1.19,1.72,2.01,3.03,2.2l15.78,2.29c3.3.48,4.62,4.53,2.23,6.86l-11.42,11.13c-.95.92-1.38,2.25-1.16,3.56l2.69,15.71c.56,3.29-2.88,5.79-5.83,4.24l-14.11-7.42c-1.17-.62-2.57-.62-3.74,0l-14.11,7.42c-2.95,1.55-6.4-.95-5.83-4.24l2.7-15.71c.22-1.3-.21-2.64-1.16-3.56L1.72,28.39c-2.39-2.33-1.07-6.38,2.23-6.86l15.78-2.29c1.31-.19,2.44-1.01,3.03-2.2l7.06-14.3c1.48-2.99,5.74-2.99,7.21,0Z"/>
    <path class="cls-2" d="M35.44,15.55l3.97,8.04c.33.67.97,1.13,1.7,1.24l8.87,1.29c1.85.27,2.59,2.55,1.25,3.86l-6.42,6.25c-.53.52-.78,1.27-.65,2l1.51,8.83c.32,1.85-1.62,3.25-3.28,2.38l-7.93-4.17c-.66-.35-1.45-.35-2.1,0l-7.93,4.17c-1.66.87-3.6-.54-3.28-2.38l1.51-8.83c.13-.73-.12-1.48-.65-2l-6.42-6.25c-1.34-1.31-.6-3.59,1.25-3.86l8.87-1.29c.74-.11,1.37-.57,1.7-1.24l3.97-8.04c.83-1.68,3.22-1.68,4.05,0Z"/>
  </g>
</svg>