<?xml version="1.0" encoding="UTF-8"?>
<svg id="Layer_2" data-name="Layer 2" xmlns="http://www.w3.org/2000/svg" viewBox="0 0 72.91 69.52">
  <defs>
    <style>
      .cls-1 {
        fill: #16db2e;
        stroke: #16db2e;
        stroke-miterlimit: 10;
      }
    </style>
  </defs>
  <g id="Layer_1-2" data-name="Layer 1">
    <path class="cls-1" d="M37.68,1.27l10.05,20.35c.2.41.59.69,1.03.75l22.46,3.26c1.13.16,1.58,1.55.76,2.34l-16.25,15.84c-.32.32-.47.77-.4,1.22l3.84,22.37c.19,1.12-.99,1.98-1.99,1.45l-20.09-10.56c-.4-.21-.88-.21-1.28,0l-20.09,10.56c-1.01.53-2.19-.33-1.99-1.45l3.84-22.37c.08-.45-.07-.9-.4-1.22L.92,27.98c-.82-.79-.37-2.18.76-2.34l22.46-3.26c.45-.07.83-.35,1.03-.75L35.22,1.27c.5-1.02,1.96-1.02,2.46,0Z"/>
  </g>
</svg>