<?xml version="1.0" encoding="UTF-8"?>
<svg id="Layer_2" data-name="Layer 2" xmlns="http://www.w3.org/2000/svg" viewBox="0 0 102.8 145.4">
  <defs>
    <style>
      .cls-1 {
        fill: #16db2e;
      }
    </style>
  </defs>
  <g id="Layer_1-2" data-name="Layer 1">
    <path class="cls-1" d="M4.1,37.9c2.73-9.27,6.43-16.7,11.1-22.3,4.67-5.6,10.1-9.6,16.3-12,6.2-2.4,12.77-3.6,19.7-3.6s13.7,1.2,19.9,3.6c6.2,2.4,11.67,6.4,16.4,12,4.73,5.6,8.47,13.03,11.2,22.3,2.73,9.27,4.1,20.7,4.1,34.3s-1.37,25.7-4.1,35.1c-2.73,9.4-6.47,16.9-11.2,22.5-4.73,5.6-10.2,9.6-16.4,12s-12.83,3.6-19.9,3.6-13.5-1.2-19.7-3.6-11.63-6.4-16.3-12c-4.67-5.6-8.37-13.1-11.1-22.5C1.37,97.9,0,86.2,0,72.2s1.37-25.03,4.1-34.3ZM28.8,86.7c.27,5.67,1.1,11.13,2.5,16.4,1.4,5.27,3.63,9.77,6.7,13.5,3.07,3.73,7.47,5.6,13.2,5.6s10.37-1.87,13.5-5.6c3.13-3.73,5.4-8.23,6.8-13.5,1.4-5.27,2.23-10.73,2.5-16.4.27-5.67.4-10.5.4-14.5,0-2.4-.03-5.3-.1-8.7-.07-3.4-.33-6.9-.8-10.5-.47-3.6-1.13-7.17-2-10.7-.87-3.53-2.17-6.7-3.9-9.5-1.73-2.8-3.93-5.07-6.6-6.8-2.67-1.73-5.93-2.6-9.8-2.6s-7.1.87-9.7,2.6c-2.6,1.73-4.73,4-6.4,6.8-1.67,2.8-2.97,5.97-3.9,9.5-.93,3.53-1.6,7.1-2,10.7-.4,3.6-.63,7.1-.7,10.5-.07,3.4-.1,6.3-.1,8.7,0,4,.13,8.83.4,14.5Z"/>
  </g>
</svg>