<?xml version="1.0" encoding="UTF-8"?>
<svg id="Layer_2" data-name="Layer 2" xmlns="http://www.w3.org/2000/svg" viewBox="0 0 102.33 142.8">
  <defs>
    <style>
      .cls-1 {
        fill: blue;
      }
    </style>
  </defs>
  <g id="Layer_1-2" data-name="Layer 1">
    <path class="cls-1" d="M5.53,34.3c2.13-6.87,5.33-12.87,9.6-18,4.27-5.13,9.63-9.13,16.1-12C37.7,1.43,45.13,0,53.53,0c6.4,0,12.5,1,18.3,3s10.9,4.87,15.3,8.6c4.4,3.73,7.9,8.33,10.5,13.8,2.6,5.47,3.9,11.6,3.9,18.4s-1.13,13.13-3.4,18.2c-2.27,5.07-5.27,9.57-9,13.5-3.73,3.93-7.97,7.5-12.7,10.7-4.73,3.2-9.5,6.37-14.3,9.5-4.8,3.13-9.47,6.5-14,10.1-4.53,3.6-8.53,7.8-12,12.6h54c6.74,0,12.2,5.46,12.2,12.2h0c0,6.74-5.46,12.2-12.2,12.2H8.08c-4.83,0-8.61-4.23-8.01-9.03.55-4.46,1.54-8.51,2.97-12.17,2.33-6,5.5-11.37,9.5-16.1,4-4.73,8.7-9.1,14.1-13.1,5.4-4,11.1-8.07,17.1-12.2,3.07-2.13,6.33-4.3,9.8-6.5,3.47-2.2,6.63-4.63,9.5-7.3,2.87-2.67,5.27-5.67,7.2-9,1.93-3.33,2.9-7.13,2.9-11.4,0-6.8-1.97-12.1-5.9-15.9-3.93-3.8-8.97-5.7-15.1-5.7-4.13,0-7.63.97-10.5,2.9-2.87,1.93-5.17,4.47-6.9,7.6-1.73,3.13-2.97,6.6-3.7,10.4l-.02.11c-1.25,6.49-6.93,11.19-13.54,11.19h-.02c-8.72,0-15.16-8.03-13.39-16.57.4-1.95.9-3.86,1.48-5.73Z"/>
  </g>
</svg>