<?xml version="1.0" encoding="UTF-8"?>
<svg id="Layer_2" data-name="Layer 2" xmlns="http://www.w3.org/2000/svg" viewBox="0 0 38 167.71">
  <defs>
    <style>
      .cls-1 {
        fill: blue;
        stroke-miterlimit: 10;
      }

      .cls-1, .cls-2 {
        stroke: blue;
      }

      .cls-2 {
        fill: #fff;
        stroke-linecap: round;
        stroke-linejoin: round;
        stroke-width: 2px;
      }
    </style>
  </defs>
  <g id="Layer_1-2" data-name="Layer 1">
    <path class="cls-1" d="M27.65,27.71H10.35c-5.16,0-9.35,4.18-9.35,9.35v116.65c0,7.46,8.06,13.5,18,13.5s18-6.04,18-13.5V37.05c0-5.16-4.18-9.35-9.35-9.35Z"/>
    <ellipse class="cls-2" cx="19" cy="36.71" rx="18" ry="13.5"/>
    <line class="cls-2" x1="19" y1="36.71" x2="19" y2="18.71"/>
    <path class="cls-1" d="M21.29,3.34l-2.64-2.64-2.64,2.64c-4.07,4.07-6.36,9.6-6.36,15.36,0,4.97,4.03,9,9,9s9-4.03,9-9c0-5.76-2.29-11.29-6.36-15.36Z"/>
    <path class="cls-2" d="M20.76,11.46l-1.76-1.76-1.76,1.76c-2.72,2.72-4.24,6.4-4.24,10.24,0,3.31,2.69,6,6,6s6-2.69,6-6c0-3.84-1.53-7.53-4.24-10.24Z"/>
  </g>
</svg>