<?xml version="1.0" encoding="UTF-8"?>
<svg id="Layer_2" data-name="Layer 2" xmlns="http://www.w3.org/2000/svg" viewBox="0 0 38 168.5">
  <defs>
    <style>
      .cls-1 {
        fill: #fff;
        stroke: blue;
        stroke-linecap: round;
        stroke-linejoin: round;
        stroke-width: 2px;
      }
    </style>
  </defs>
  <g id="Layer_1-2" data-name="Layer 1">
    <path class="cls-1" d="M27.65,28H10.35c-5.16,0-9.35,4.18-9.35,9.35v116.65c0,7.46,8.06,13.5,18,13.5s18-6.04,18-13.5V37.35c0-5.16-4.18-9.35-9.35-9.35Z"/>
    <ellipse class="cls-1" cx="19" cy="37" rx="18" ry="13.5"/>
    <line class="cls-1" x1="19" y1="37" x2="19" y2="19"/>
    <path class="cls-1" d="M21.29,3.64l-2.64-2.64-2.64,2.64c-4.07,4.07-6.36,9.6-6.36,15.36,0,4.97,4.03,9,9,9s9-4.03,9-9c0-5.76-2.29-11.29-6.36-15.36Z"/>
  </g>
</svg>