<?xml version="1.0" encoding="UTF-8"?>
<svg id="Layer_2" data-name="Layer 2" xmlns="http://www.w3.org/2000/svg" viewBox="0 0 103.42 167.03">
  <defs>
    <style>
      .cls-1, .cls-2 {
        stroke: red;
        stroke-linecap: round;
        stroke-linejoin: round;
      }

      .cls-2 {
        fill: none;
      }
    </style>
  </defs>
  <g id="Layer_1-2" data-name="Layer 1">
    <path class="cls-1" d="M50.72,80.53c3.47-.27,6.7-1.03,9.7-2.3,3-1.27,5.47-3.1,7.4-5.5,1.93-2.4,2.9-5.6,2.9-9.6,0-6-2-10.6-6-13.8-4-3.2-8.6-4.8-13.8-4.8-7.2,0-12.63,2.37-16.3,7.1-1.86,2.41-3.24,5.13-4.12,8.18-1.65,5.71-6.74,9.72-12.68,9.72h0c-8.95,0-15.34-8.78-12.48-17.27.28-.82.57-1.63.89-2.43,2.33-5.93,5.6-11.03,9.8-15.3,4.2-4.27,9.23-7.57,15.1-9.9,5.87-2.33,12.4-3.5,19.6-3.5,5.6,0,11.2.83,16.8,2.5,5.6,1.67,10.63,4.17,15.1,7.5,4.47,3.33,8.1,7.4,10.9,12.2,2.8,4.8,4.2,10.33,4.2,16.6,0,6.8-1.63,12.8-4.9,18-3.27,5.2-8.17,8.73-14.7,10.6v.4c7.73,1.73,13.8,5.47,18.2,11.2,4.4,5.73,6.6,12.6,6.6,20.6,0,7.33-1.43,13.87-4.3,19.6-2.87,5.73-6.7,10.53-11.5,14.4-4.8,3.87-10.33,6.8-16.6,8.8-6.27,2-12.8,3-19.6,3-7.87,0-15.03-1.13-21.5-3.4-6.47-2.27-11.97-5.57-16.5-9.9-4.53-4.33-8.03-9.63-10.5-15.9-.51-1.3-.97-2.63-1.37-4.01-2.55-8.8,4.06-17.59,13.22-17.59h0c6.11,0,11.49,4.03,13.2,9.9.08.27.16.54.24.8,1.07,3.4,2.6,6.33,4.6,8.8,2,2.47,4.5,4.43,7.5,5.9,3,1.47,6.57,2.2,10.7,2.2,6.4,0,11.8-1.97,16.2-5.9,4.4-3.93,6.6-9.3,6.6-16.1,0-5.33-1.03-9.4-3.1-12.2-2.07-2.8-4.7-4.83-7.9-6.1-3.2-1.27-6.7-2-10.5-2.2-.42-.02-.84-.04-1.25-.06-5.4-.26-9.65-4.7-9.65-10.11h0c0-5.34,4.14-9.71,9.47-10.1.11,0,.22-.02.33-.03Z"/>
    <g>
      <g>
        <rect class="cls-1" x="37.9" y="8.39" width="27.62" height="16.39" rx="3.11" ry="3.11"/>
        <line class="cls-1" x1="37.9" y1="16.59" x2="65.52" y2="16.59"/>
      </g>
      <path class="cls-1" d="M51.71.5h0c3.48,0,6.31,2.83,6.31,6.31v1.58h-12.62v-1.58c0-3.48,2.83-6.31,6.31-6.31Z"/>
    </g>
    <path class="cls-2" d="M88.59,101.64c5.08,5.36,7.62,11.78,7.62,19.26,0,6.86-1.66,12.97-4.96,18.32"/>
    <path class="cls-2" d="M88.59,142.53s-3.41,4.42-10.12,8.62"/>
  </g>
</svg>