<?xml version="1.0" encoding="UTF-8"?>
<svg id="Layer_1" data-name="Layer 1" xmlns="http://www.w3.org/2000/svg" xmlns:xlink="http://www.w3.org/1999/xlink" viewBox="0 0 250 250">
  <defs>
    <style>
      .cls-1 {
        fill: red;
      }

      .cls-1, .cls-2, .cls-3 {
        stroke: red;
      }

      .cls-1, .cls-3 {
        stroke-linecap: round;
        stroke-linejoin: round;
      }

      .cls-2 {
        fill: none;
        stroke-miterlimit: 10;
      }

      .cls-3 {
        fill: #fff;
      }

      .cls-4 {
        clip-path: url(#clippath);
      }
    </style>
    <clipPath id="clippath">
      <path class="cls-2" d="M134,194.98c-.13,0-.26.02-.4.02-7.84,0-14.2-6.36-14.2-14.2v-76.6h-24.26c-6.04,0-10.94-4.9-10.94-10.94,0-5.59,4.22-10.23,9.77-10.87,1.53-.18,3.04-.4,4.53-.69,4.6-.87,8.73-2.4,12.4-4.6,3.67-2.2,6.77-5.1,9.3-8.7,1.13-1.61,2.09-3.38,2.87-5.33,1.96-4.86,6.66-8.07,11.9-8.07,7.08,0,12.83,5.74,12.83,12.83v111.17h49.2V44H53v162h81v-11.02Z"/>
    </clipPath>
  </defs>
  <g class="cls-4">
    <g>
      <polygon class="cls-1" points="53 188 197 152 197 170 53 206 53 188"/>
      <polygon class="cls-3" points="53 170 197 134 197 152 53 188 53 170"/>
      <polygon class="cls-1" points="53 152 197 116 197 134 53 170 53 152"/>
      <polygon class="cls-3" points="53 134 197 98 197 116 53 152 53 134"/>
      <polygon class="cls-1" points="53 80 197 44 197 62 53 98 53 80"/>
      <polygon class="cls-3" points="197 170 197 188 116 206 53 206 197 170"/>
      <polygon class="cls-1" points="116 206 197 206 197 188 116 206"/>
      <polygon class="cls-3" points="53 80 53 62 134 44 197 44 53 80"/>
      <polygon class="cls-1" points="134 44 53 44 53 62 134 44"/>
      <polygon class="cls-1" points="53 116 197 80 197 98 53 134 53 116"/>
      <polygon class="cls-3" points="53 98 197 62 197 80 53 116 53 98"/>
    </g>
  </g>
  <path class="cls-2" d="M134,194.98c-.13,0-.26.02-.4.02-7.84,0-14.2-6.36-14.2-14.2v-76.6h-24.26c-6.04,0-10.94-4.9-10.94-10.94,0-5.59,4.22-10.23,9.77-10.87,1.53-.18,3.04-.4,4.53-.69,4.6-.87,8.73-2.4,12.4-4.6,3.67-2.2,6.77-5.1,9.3-8.7,1.13-1.61,2.09-3.38,2.87-5.33,1.96-4.86,6.66-8.07,11.9-8.07,7.08,0,12.83,5.74,12.83,12.83v111.17h49.2V44H53v162h81v-11.02Z"/>
</svg>