<?xml version="1.0" encoding="UTF-8"?>
<svg id="Layer_1" data-name="Layer 1" xmlns="http://www.w3.org/2000/svg" xmlns:xlink="http://www.w3.org/1999/xlink" viewBox="0 0 250 250">
  <defs>
    <style>
      .cls-1 {
        fill: red;
      }

      .cls-1, .cls-2, .cls-3 {
        stroke: red;
      }

      .cls-1, .cls-3 {
        stroke-linecap: round;
        stroke-linejoin: round;
      }

      .cls-4 {
        clip-path: url(#clippath-1);
      }

      .cls-5 {
        clip-path: url(#clippath-2);
      }

      .cls-2 {
        fill: none;
        stroke-miterlimit: 10;
      }

      .cls-3 {
        fill: #fff;
      }

      .cls-6 {
        clip-path: url(#clippath);
      }
    </style>
    <clipPath id="clippath">
      <path class="cls-2" d="M133.75,44H52.75v72h66.4v-11.8h-24.26c-6.04,0-10.94-4.9-10.94-10.94,0-5.59,4.22-10.23,9.77-10.87,1.53-.18,3.04-.4,4.53-.69,4.6-.87,8.73-2.4,12.4-4.6,3.67-2.2,6.77-5.1,9.3-8.7,1.13-1.61,2.09-3.38,2.87-5.33,1.84-4.56,6.08-7.66,10.93-8.03v-11.04Z"/>
    </clipPath>
    <clipPath id="clippath-1">
      <polygon class="cls-2" points="147.55 179 196.75 179 196.75 170 196.75 152 196.75 134 196.75 116 196.75 98 196.75 80 147.55 80 147.55 179"/>
    </clipPath>
    <clipPath id="clippath-2">
      <path class="cls-2" d="M119.15,180.8v-19.8H52.75v45h81v-11.02c-.13,0-.26.02-.4.02-7.84,0-14.2-6.36-14.2-14.2Z"/>
    </clipPath>
  </defs>
  <g>
    <g class="cls-6">
      <g>
        <polygon class="cls-1" points="52.75 188 196.75 152 196.75 170 52.75 206 52.75 188"/>
        <polygon class="cls-3" points="52.75 170 196.75 134 196.75 152 52.75 188 52.75 170"/>
        <polygon class="cls-1" points="52.75 152 196.75 116 196.75 134 52.75 170 52.75 152"/>
        <polygon class="cls-3" points="52.75 134 196.75 98 196.75 116 52.75 152 52.75 134"/>
        <polygon class="cls-1" points="52.75 80 196.75 44 196.75 62 52.75 98 52.75 80"/>
        <polygon class="cls-3" points="196.75 170 196.75 188 115.75 206 52.75 206 196.75 170"/>
        <polygon class="cls-1" points="115.75 206 196.75 206 196.75 188 115.75 206"/>
        <polygon class="cls-3" points="52.75 80 52.75 62 133.75 44 196.75 44 52.75 80"/>
        <polygon class="cls-1" points="133.75 44 52.75 44 52.75 62 133.75 44"/>
        <polygon class="cls-1" points="52.75 116 196.75 80 196.75 98 52.75 134 52.75 116"/>
        <polygon class="cls-3" points="52.75 98 196.75 62 196.75 80 52.75 116 52.75 98"/>
      </g>
    </g>
    <path class="cls-2" d="M133.75,44H52.75v72h66.4v-11.8h-24.26c-6.04,0-10.94-4.9-10.94-10.94,0-5.59,4.22-10.23,9.77-10.87,1.53-.18,3.04-.4,4.53-.69,4.6-.87,8.73-2.4,12.4-4.6,3.67-2.2,6.77-5.1,9.3-8.7,1.13-1.61,2.09-3.38,2.87-5.33,1.84-4.56,6.08-7.66,10.93-8.03v-11.04Z"/>
  </g>
  <g>
    <g class="cls-4">
      <g>
        <polygon class="cls-1" points="52.75 188 196.75 152 196.75 170 52.75 206 52.75 188"/>
        <polygon class="cls-3" points="52.75 170 196.75 134 196.75 152 52.75 188 52.75 170"/>
        <polygon class="cls-1" points="52.75 152 196.75 116 196.75 134 52.75 170 52.75 152"/>
        <polygon class="cls-3" points="52.75 134 196.75 98 196.75 116 52.75 152 52.75 134"/>
        <polygon class="cls-1" points="52.75 80 196.75 44 196.75 62 52.75 98 52.75 80"/>
        <polygon class="cls-3" points="196.75 170 196.75 188 115.75 206 52.75 206 196.75 170"/>
        <polygon class="cls-1" points="115.75 206 196.75 206 196.75 188 115.75 206"/>
        <polygon class="cls-3" points="52.75 80 52.75 62 133.75 44 196.75 44 52.75 80"/>
        <polygon class="cls-1" points="133.75 44 52.75 44 52.75 62 133.75 44"/>
        <polygon class="cls-1" points="52.75 116 196.75 80 196.75 98 52.75 134 52.75 116"/>
        <polygon class="cls-3" points="52.75 98 196.75 62 196.75 80 52.75 116 52.75 98"/>
      </g>
    </g>
    <polygon class="cls-2" points="147.55 179 196.75 179 196.75 170 196.75 152 196.75 134 196.75 116 196.75 98 196.75 80 147.55 80 147.55 179"/>
  </g>
  <g>
    <g class="cls-5">
      <g>
        <polygon class="cls-1" points="52.75 188 196.75 152 196.75 170 52.75 206 52.75 188"/>
        <polygon class="cls-3" points="52.75 170 196.75 134 196.75 152 52.75 188 52.75 170"/>
        <polygon class="cls-1" points="52.75 152 196.75 116 196.75 134 52.75 170 52.75 152"/>
        <polygon class="cls-3" points="52.75 134 196.75 98 196.75 116 52.75 152 52.75 134"/>
        <polygon class="cls-1" points="52.75 80 196.75 44 196.75 62 52.75 98 52.75 80"/>
        <polygon class="cls-3" points="196.75 170 196.75 188 115.75 206 52.75 206 196.75 170"/>
        <polygon class="cls-1" points="115.75 206 196.75 206 196.75 188 115.75 206"/>
        <polygon class="cls-3" points="52.75 80 52.75 62 133.75 44 196.75 44 52.75 80"/>
        <polygon class="cls-1" points="133.75 44 52.75 44 52.75 62 133.75 44"/>
        <polygon class="cls-1" points="52.75 116 196.75 80 196.75 98 52.75 134 52.75 116"/>
        <polygon class="cls-3" points="52.75 98 196.75 62 196.75 80 52.75 116 52.75 98"/>
      </g>
    </g>
    <path class="cls-2" d="M119.15,180.8v-19.8H52.75v45h81v-11.02c-.13,0-.26.02-.4.02-7.84,0-14.2-6.36-14.2-14.2Z"/>
  </g>
</svg>